<svg width="30" height="33" viewBox="0 0 30 33" fill="none" xmlns="http://www.w3.org/2000/svg">
<path d="M15.1796 31.1756H6.01931C3.24736 31.1756 1 28.8806 1 26.0498V9.04167C1 6.21092 3.24736 3.91589 6.01931 3.91589H22.0607C24.8326 3.91589 27.08 6.21092 27.08 9.04167V12.9464" stroke="#1492E6" stroke-width="1.75281" stroke-miterlimit="10" stroke-linecap="round"/>
<path d="M20.1914 0.920288V6.30434" stroke="#1492E6" stroke-width="1.75281" stroke-miterlimit="10" stroke-linecap="round"/>
<path d="M8.6543 0.920166V6.30421" stroke="#1492E6" stroke-width="1.75281" stroke-miterlimit="10" stroke-linecap="round"/>
<path d="M10.9498 12.9464H6.39062" stroke="#1492E6" stroke-width="2.01949" stroke-miterlimit="10" stroke-linecap="round"/>
<path d="M14.4849 18.3887H6.39062" stroke="#1492E6" stroke-width="2.17161" stroke-miterlimit="10" stroke-linecap="round"/>
<path d="M24.3515 22.6883C25.8897 22.6883 27.1366 21.415 27.1366 19.8442C27.1366 18.2734 25.8897 17 24.3515 17C22.8133 17 21.5664 18.2734 21.5664 19.8442C21.5664 21.415 22.8133 22.6883 24.3515 22.6883Z" stroke="#1492E6" stroke-width="1.60633" stroke-miterlimit="10" stroke-linecap="round"/>
<path d="M26.0867 25.0095H22.6111C20.9005 25.0095 19.5137 26.4257 19.5137 28.1727C19.5137 29.9197 20.9005 31.3359 22.6111 31.3359H26.0867C27.7974 31.3359 29.1842 29.9197 29.1842 28.1727C29.1842 26.4257 27.7974 25.0095 26.0867 25.0095Z" stroke="#1492E6" stroke-width="1.60633" stroke-miterlimit="10" stroke-linecap="round"/>
</svg>
