<svg width="36" height="34" viewBox="0 0 36 34" fill="none" xmlns="http://www.w3.org/2000/svg">
<path d="M34.9997 4.17468V4.60867C34.8372 4.82457 34.752 4.9376 34.4704 4.97165C33.3884 5.10207 31.1806 5.0202 30.1142 4.7898C27.1891 4.15801 24.6931 1.6816 21.6573 1.49685C19.7261 1.37947 17.668 1.57654 15.724 1.51713L10.8989 3.52985C10.686 3.68563 10.7811 4.13628 10.8641 4.34784C11.2841 5.41796 13.0848 4.86587 13.9014 4.64417C14.4143 4.50434 15.2011 3.97399 15.6013 4.49854C16.2646 5.36797 14.5257 5.7266 13.9716 5.87296C12.8088 6.18015 11.4551 6.49677 10.4306 5.65705C9.54024 4.92746 9.21885 3.43349 10.1248 2.59595L15.3693 0.360072C18.1213 0.561489 21.5729 -0.16086 24.166 0.814347C26.7052 1.76854 28.8024 3.62984 31.6375 3.81242C32.2504 3.85227 34.4363 3.68563 34.7861 3.92327C34.8698 3.98051 34.9188 4.1073 34.9997 4.17468Z" fill="#1492E6" stroke="#1492E6" stroke-width="0.566667" stroke-miterlimit="10"/>
<path d="M34.999 11.5481C34.8578 11.722 34.7741 11.8662 34.5343 11.9053C33.2345 12.1154 31.4346 11.7575 30.0781 11.909C29.6659 11.9553 29.1508 12.2227 28.7003 12.3096C26.8805 12.661 24.8216 12.2777 23.4566 10.9352C23.1863 10.6693 22.6059 9.67453 22.4874 9.59266C21.7666 9.09419 19.9979 8.6218 19.0919 8.16245C17.3303 7.26984 16.0774 5.62155 17.0025 3.5458C17.3345 2.80099 17.7957 3.13355 18.359 3.34438C20.4016 4.1102 22.369 5.13033 24.4051 5.91788C25.0245 6.5685 24.4108 7.25535 23.6517 6.90396L17.9717 4.46304C17.6886 5.77081 18.5548 6.55474 19.5885 7.07784C20.2462 7.4104 23.2026 8.46168 23.4601 8.83553C23.6325 9.08694 23.7354 9.42022 23.9568 9.70206C25.0948 11.1533 26.9266 11.4351 28.6286 11.0779C28.9812 11.004 29.4225 10.7881 29.7234 10.7497C30.7379 10.6215 33.3544 10.6497 34.4016 10.7483C34.7216 10.778 34.8152 10.8497 34.9997 11.1134V11.5474L34.999 11.5481Z" fill="#1492E6" stroke="#1492E6" stroke-width="0.566667" stroke-miterlimit="10"/>
<path d="M9.3456 9.18829C9.83442 9.68749 8.93055 10.625 8.65031 11.1387C7.5336 13.1862 7.10934 15.3902 7.31792 17.729C7.36688 18.2789 7.83371 19.3845 7.03626 19.5453C6.22392 19.7083 6.15297 18.0985 6.11466 17.5123C5.94226 14.8867 6.54602 12.2523 7.92523 10.0367C8.19909 9.59692 8.75248 8.58259 9.3456 9.18901V9.18829Z" fill="#1492E6" stroke="#1492E6" stroke-width="0.566667" stroke-miterlimit="10"/>
<path d="M10.6286 7.22343C11.5417 7.02999 11.5424 8.57539 10.6158 8.51018C9.9262 8.46164 9.94039 7.36979 10.6286 7.22343Z" fill="#1492E6" stroke="#1492E6" stroke-width="0.566667" stroke-miterlimit="10"/>
<path d="M20.2769 14.2231H23.2858C23.5192 14.2231 23.6604 14.6274 23.6788 14.8339C23.7782 15.9562 23.6015 17.235 23.671 18.3753C23.6895 18.5297 23.3979 18.8492 23.2858 18.8492H20.2769V21.9219C20.2769 22.1603 19.881 22.3044 19.6788 22.3233C18.5791 22.4247 17.3269 22.2443 16.2102 22.3153C16.0591 22.3341 15.7455 22.0364 15.7455 21.9219V18.8492H12.7366C12.5032 18.8492 12.362 18.4449 12.3436 18.2384C12.2443 17.1161 12.4209 15.8374 12.3514 14.697C12.3329 14.5426 12.6245 14.2231 12.7366 14.2231H15.7455V11.1504C15.7455 11.0359 16.0584 10.7382 16.2102 10.757C17.3269 10.828 18.5791 10.6476 19.6788 10.749C19.8817 10.7679 20.2769 10.9121 20.2769 11.1504V14.2231ZM19.1439 11.9097H16.8785V14.9824C16.8785 15.0672 16.572 15.3802 16.489 15.3802H13.4802V17.6936H16.489C16.572 17.6936 16.8785 18.0066 16.8785 18.0913V21.164H19.1439V18.0913C19.1439 18.0066 19.4497 17.6936 19.5334 17.6936H22.5423V15.3802H19.5334C19.4504 15.3802 19.1439 15.0672 19.1439 14.9824V11.9097Z" fill="#1492E6" stroke="#1492E6" stroke-width="0.566667" stroke-miterlimit="10"/>
<path d="M28.9635 13.5848C29.6793 13.4334 29.756 14.4245 29.8219 14.9201C30.1717 17.566 29.6403 20.2728 28.3576 22.5848C28.1859 22.8942 27.5452 23.9925 27.2466 24.0527C26.7542 24.1519 26.4051 23.8201 26.5201 23.3108C26.574 23.0709 27.1955 22.2486 27.3665 21.9342C28.6627 19.557 29.0706 16.8009 28.503 14.1303C28.5243 13.9036 28.7428 13.6311 28.9642 13.5848H28.9635Z" fill="#1492E6" stroke="#1492E6" stroke-width="0.566667" stroke-miterlimit="10"/>
<path d="M25.2819 24.6467C26.0289 24.4786 26.285 25.4625 25.6749 25.7719C24.8555 26.1878 24.4454 24.8344 25.2819 24.6467Z" fill="#1492E6" stroke="#1492E6" stroke-width="0.566667" stroke-miterlimit="10"/>
<path d="M20.6986 32.7296C18.4283 32.5636 15.8529 32.9513 13.6188 32.7296C11.164 32.4854 8.57517 30.2821 6.18496 29.5851C4.58297 29.1178 3.00581 29.3156 1.36693 29.2272C0.783744 28.8939 0.917125 28.1643 1.61525 28.0991C2.46377 28.0202 3.94444 28.0405 4.80716 28.0991C8.23675 28.3339 10.9931 31.3696 14.3595 31.5754C16.2545 31.6906 18.2609 31.4827 20.1679 31.5725C21.8657 30.9451 23.5287 30.1923 25.196 29.4772C25.3811 28.8787 25.0037 28.223 24.3992 28.1194C23.2336 27.9195 21.975 28.544 20.8675 28.8208C20.2311 28.728 20.0324 27.9963 20.649 27.6536C21.3457 27.2667 23.4826 26.8022 24.2651 26.8819C25.672 27.0247 26.7554 28.3317 26.3425 29.78C26.1992 30.2821 25.9913 30.4285 25.5606 30.6444C24.014 31.4182 22.2375 31.9116 20.6986 32.7288V32.7296Z" fill="#1492E6" stroke="#1492E6" stroke-width="0.566667" stroke-miterlimit="10"/>
<path d="M13.4971 23.4556C13.964 23.8556 16.3371 24.5917 17.114 25.0047C18.7593 25.8799 19.7256 27.3144 19.1069 29.2598C18.9735 29.6793 18.8451 30.0307 18.3364 29.9792L11.5702 27.1232C11.153 26.6595 11.3751 26.0248 12.0257 26.0741L18.0448 28.6084C18.0966 28.3288 18.1059 28.0049 18.0626 27.7231C17.7887 25.9509 14.0612 25.2003 12.7337 24.4164C11.6419 22.258 9.69506 21.4835 7.37438 21.9798C7.0317 22.053 6.60034 22.2826 6.29314 22.3218C4.8444 22.5058 3.03453 22.1798 1.54606 22.3218C0.872772 22.2877 0.818852 21.2734 1.48079 21.1676C2.78693 20.9597 4.57764 21.3154 5.9377 21.164C6.52017 21.0988 7.18353 20.73 7.85824 20.667C9.9526 20.4706 11.8164 21.0828 13.1119 22.8028C13.2318 22.9622 13.3964 23.3701 13.4978 23.4564L13.4971 23.4556Z" fill="#1492E6" stroke="#1492E6" stroke-width="0.566667" stroke-miterlimit="10"/>
</svg>
