<svg width="32" height="31" viewBox="0 0 32 31" fill="none" xmlns="http://www.w3.org/2000/svg">
<path d="M4.72473 19.4965C6.93453 22.7843 10.1347 25.5262 15.9265 29.624C28.8942 20.4484 30.8823 12.8089 30.8523 8.91697V8.90546C30.8498 8.62673 30.8373 8.36782 30.8172 8.12873C30.816 8.11658 30.8154 8.10444 30.8135 8.09229C30.7402 7.40762 30.5631 6.75171 30.2977 6.13928C29.1827 3.56808 26.5103 1.75635 23.3891 1.75635C20.2678 1.75635 17.5948 3.56808 16.4805 6.13928C16.123 6.96395 15.9258 7.53036 15.9258 8.47714C15.9258 7.53036 15.7286 6.96459 15.3712 6.13928C14.2569 3.56808 11.5839 1.75635 8.4626 1.75635C5.34134 1.75635 2.66893 3.56808 1.55464 6.13992C1.28921 6.75235 1.11268 7.40826 1.03881 8.09293C1.03756 8.10444 1.03631 8.11658 1.03506 8.12937C1.01502 8.36846 1.0025 8.62737 1 8.9061V10.6002" stroke="#1492E6" stroke-width="1.75" stroke-linecap="round" stroke-linejoin="round"/>
<path d="M2.69238 15.7055H7.02434L10.8643 8.41577L12.0461 21.7384L15.0998 15.6052H24.9938" stroke="#1492E6" stroke-width="1.75" stroke-linecap="round" stroke-linejoin="round"/>
</svg>
