<svg width="43" height="20" viewBox="0 0 43 20" fill="none" xmlns="http://www.w3.org/2000/svg">
<path d="M22.2004 0V20H17.4441L17.517 7.8304L12.602 16.2417H9.4432L4.26638 7.72367L4.34279 20H0V0H4.55858L11.1958 11.0166L17.5018 0H22.2004Z" fill="white"/>
<path d="M25.5625 19.9994V0H32.4196C34.4959 0 36.3168 0.424005 37.884 1.27143C39.4505 2.11886 40.6718 3.2929 41.5485 4.79237C42.4245 6.29243 42.8625 8.02811 42.8625 9.99942C42.8625 11.4849 42.6123 12.8421 42.1124 14.0709C41.6126 15.2998 40.9005 16.3542 39.9766 17.2349C39.0528 18.1156 37.9528 18.7968 36.6767 19.278C35.4005 19.7585 33.9815 19.9994 32.4196 19.9994H25.5625ZM30.3031 15.585H32.177C33.0344 15.585 33.8101 15.466 34.5053 15.228C35.2005 14.9901 35.803 14.6332 36.3127 14.1567C36.8219 13.6807 37.2127 13.0946 37.4839 12.3994C37.7551 11.7042 37.891 10.904 37.891 9.99942C37.891 8.79039 37.653 7.77091 37.1771 6.94273C36.7006 6.11396 36.0316 5.48583 35.1696 5.05716C34.3076 4.62848 33.3102 4.41444 32.177 4.41444H30.3054L30.3025 15.5856L30.3031 15.585Z" fill="white"/>
<path d="M29.6886 7.83493V11.1984H25.5651V15.2722H22.2022V11.1984H18.1172L18.1388 7.83201L22.2022 7.83318V3.71094L25.5651 3.72318V7.83376L29.6886 7.83493Z" fill="#5CE7A0"/>
</svg>
