<svg width="35" height="28" viewBox="0 0 35 28" fill="none" xmlns="http://www.w3.org/2000/svg">
<path d="M32.7586 12.0669H25.9655C25.8454 12.051 25.7236 12.051 25.6034 12.0669H25.3103C25.2191 12.1165 25.1326 12.1742 25.0517 12.2394C24.9564 12.3037 24.8643 12.3727 24.7759 12.4463C24.7183 12.5168 24.6664 12.5917 24.6207 12.6704C24.5415 12.7789 24.4723 12.8943 24.4138 13.0152L21.6552 20.6187L14.4655 1.13591C14.3447 0.80306 14.1244 0.515481 13.8344 0.312252C13.5444 0.109023 13.1989 0 12.8448 0C12.4907 0 12.1452 0.109023 11.8553 0.312252C11.5653 0.515481 11.3449 0.80306 11.2241 1.13591L7.24138 12.0669H1.72414C1.26687 12.0669 0.828327 12.2486 0.504988 12.5719C0.18165 12.8953 0 13.3338 0 13.7911C0 14.2483 0.18165 14.6869 0.504988 15.0102C0.828327 15.3336 1.26687 15.5152 1.72414 15.5152H9.13793C9.23511 15.4666 9.32748 15.4088 9.41379 15.3428C9.50914 15.2785 9.60121 15.2094 9.68965 15.1359L9.84483 14.9118C9.92701 14.8053 9.99644 14.6896 10.0517 14.5669L12.8448 6.7566L20.0172 26.4463C20.1377 26.7795 20.3579 27.0675 20.6479 27.2711C20.9379 27.4747 21.2836 27.584 21.6379 27.5842C21.9923 27.584 22.3379 27.4747 22.6279 27.2711C22.9179 27.0675 23.1381 26.7795 23.2586 26.4463L27.2241 15.5152H32.7586C33.2159 15.5152 33.6544 15.3336 33.9778 15.0102C34.3011 14.6869 34.4828 14.2483 34.4828 13.7911C34.4828 13.3338 34.3011 12.8953 33.9778 12.5719C33.6544 12.2486 33.2159 12.0669 32.7586 12.0669Z" fill="#1492E6"/>
</svg>
