<svg width="69" height="86" viewBox="0 0 69 86" fill="none" xmlns="http://www.w3.org/2000/svg">
<path d="M34.5002 40.0707C45.164 40.0707 53.8086 31.426 53.8086 20.7623C53.8086 10.0985 45.164 1.45386 34.5002 1.45386C23.8365 1.45386 15.1918 10.0985 15.1918 20.7623C15.1918 31.426 23.8365 40.0707 34.5002 40.0707Z" fill="#1492E6"/>
<path d="M34.5001 41.4001C23.1198 41.4001 13.8622 32.1425 13.8622 20.7622C13.8622 9.38186 23.1198 0.124268 34.5001 0.124268C45.8804 0.124268 55.138 9.38186 55.138 20.7622C55.138 32.1425 45.8804 41.4001 34.5001 41.4001ZM34.5001 2.78322C24.5867 2.78322 16.5212 10.8487 16.5212 20.7622C16.5212 30.6756 24.5867 38.7411 34.5001 38.7411C44.4136 38.7411 52.4791 30.6756 52.4791 20.7622C52.4791 10.8487 44.4136 2.78322 34.5001 2.78322Z" fill="#1492E6"/>
<path d="M34.4998 45.4863C52.8067 45.4863 67.6703 60.3499 67.6703 78.6568C67.6703 81.9095 65.029 84.5463 61.7807 84.5463H7.22341C3.97062 84.5463 1.33383 81.9051 1.33383 78.6568C1.33383 60.3499 16.1974 45.4863 34.5043 45.4863H34.4998Z" fill="#1492E6"/>
<path d="M61.7808 85.8757H7.21903C3.23946 85.8757 -3.05176e-05 82.6362 -3.05176e-05 78.6567C-3.05176e-05 59.6318 15.4751 44.1567 34.4999 44.1567C53.5247 44.1567 68.9998 59.6318 68.9998 78.6567C68.9998 82.6362 65.7603 85.8757 61.7808 85.8757ZM34.4999 46.8157C16.9419 46.8157 2.65892 61.0987 2.65892 78.6567C2.65892 81.1694 4.70632 83.2168 7.21903 83.2168H61.7808C64.2935 83.2168 66.3409 81.1694 66.3409 78.6567C66.3409 61.0987 52.0578 46.8157 34.4999 46.8157Z" fill="#1492E6"/>
<path d="M52.1066 72.5454H47.2495C46.5139 72.5454 45.9201 71.9516 45.9201 71.2159C45.9201 70.4803 46.5139 69.8864 47.2495 69.8864H50.3738L47.901 60.6953C47.4224 58.9227 45.8093 57.6863 43.9746 57.6863H40.2077C38.3731 57.6863 36.76 58.9227 36.2814 60.6953L33.8085 69.8864H35.9313C36.6669 69.8864 37.2607 70.4803 37.2607 71.2159C37.2607 71.9516 36.6669 72.5454 35.9313 72.5454H32.0758C31.6636 72.5454 31.2737 72.3548 31.0211 72.0269C30.7685 71.6989 30.6843 71.2735 30.7906 70.8747L33.711 60.0084C34.4999 57.0791 37.1721 55.0317 40.2033 55.0317H43.9702C47.0058 55.0317 49.6736 57.0791 50.4624 60.0084L53.3829 70.8747C53.4892 71.2735 53.405 71.6989 53.1524 72.0269C52.8998 72.3548 52.5098 72.5454 52.0977 72.5454H52.1066Z" fill="white"/>
<path d="M43.4206 44.1567H40.7617V57.6819H43.4206V44.1567Z" fill="white"/>
<path d="M17.611 60.6822C16.8754 60.6822 16.2815 60.0884 16.2815 59.3527V47.4052C16.2815 46.6695 16.8754 46.0757 17.611 46.0757C18.3466 46.0757 18.9405 46.6695 18.9405 47.4052V59.3527C18.9405 60.0884 18.3466 60.6822 17.611 60.6822Z" fill="white"/>
<path d="M17.6111 68.3842C14.7527 68.3842 12.4305 66.0621 12.4305 63.2037C12.4305 60.3453 14.7571 58.0232 17.6111 58.0232C20.465 58.0232 22.7916 60.3453 22.7916 63.2037C22.7916 66.0621 20.465 68.3842 17.6111 68.3842ZM17.6111 60.6821C16.2196 60.6821 15.0895 61.8122 15.0895 63.2037C15.0895 64.5952 16.2196 65.7253 17.6111 65.7253C19.0026 65.7253 20.1326 64.5952 20.1326 63.2037C20.1326 61.8122 19.0026 60.6821 17.6111 60.6821Z" fill="white"/>
<path d="M45.406 73.476C46.6542 73.476 47.6661 72.4641 47.6661 71.2159C47.6661 69.9677 46.6542 68.9558 45.406 68.9558C44.1578 68.9558 43.1459 69.9677 43.1459 71.2159C43.1459 72.4641 44.1578 73.476 45.406 73.476Z" fill="white"/>
<path d="M37.7306 73.476C38.9788 73.476 39.9907 72.4641 39.9907 71.2159C39.9907 69.9677 38.9788 68.9558 37.7306 68.9558C36.4823 68.9558 35.4705 69.9677 35.4705 71.2159C35.4705 72.4641 36.4823 73.476 37.7306 73.476Z" fill="white"/>
</svg>
