<svg width="105" height="111" viewBox="0 0 105 111" fill="none" xmlns="http://www.w3.org/2000/svg">
<path d="M103.241 51.0229C103.334 55.8305 102.482 60.8701 100.626 65.8923C94.8612 81.4345 79.9396 97.1158 54.5212 108.511C54.4806 108.535 54.4342 108.552 54.4052 108.575H54.3936C54.3531 108.587 54.3067 108.622 54.2545 108.645C54.1965 108.668 54.1443 108.685 54.0921 108.709C53.8775 108.796 53.6513 108.871 53.4194 108.923C53.2976 108.946 53.1816 108.952 53.054 108.964C52.8684 108.993 52.6886 109.004 52.5031 109.016C52.3059 109.01 52.1203 108.993 51.9289 108.964C51.8188 108.952 51.7028 108.941 51.5984 108.923C51.3606 108.865 51.1286 108.796 50.9141 108.691C50.8561 108.685 50.7923 108.668 50.7401 108.651C50.6995 108.645 50.6531 108.61 50.5951 108.587C50.5545 108.564 50.5081 108.546 50.4675 108.523C25.0549 97.1274 10.1333 81.4403 4.37461 65.8981C2.51303 60.8759 1.66053 55.8305 1.75912 51.0229C1.77652 50.1414 1.82291 49.2599 1.9099 48.3958C2.44924 44.2609 4.36301 40.561 7.16987 37.7483C10.5219 34.3963 15.1381 32.3259 20.2531 32.3259C25.3681 32.3259 29.9902 34.3963 33.3364 37.7483C34.1483 38.5602 34.879 39.4475 35.5343 40.3986C32.2287 44.0985 30.1003 48.8656 29.7234 54.1139C29.6828 54.6707 29.6596 55.2332 29.6596 55.8015C29.6596 58.0691 31.498 59.9074 33.7655 59.9074H71.809C72.9456 59.9074 73.9663 59.4493 74.7144 58.707C75.4567 57.9647 75.9149 56.9382 75.9149 55.8015C75.9149 55.2332 75.8917 54.6707 75.8511 54.1139C75.4683 48.6916 73.2066 43.7912 69.7212 40.0448C70.3069 39.2271 70.9623 38.4558 71.6756 37.7483C75.0276 34.3963 79.6496 32.3259 84.7588 32.3259C89.868 32.3259 94.4901 34.3963 97.8421 37.7483C100.643 40.5494 102.545 44.2377 103.102 48.3494C103.189 49.2309 103.241 50.1182 103.259 51.0171L103.241 51.0229Z" fill="#1492E6"/>
<path d="M52.4975 110.767H52.4163C52.2133 110.756 51.964 110.738 51.6914 110.698H51.6508C51.5174 110.68 51.3782 110.663 51.2507 110.634L51.1869 110.622C50.8969 110.553 50.6243 110.466 50.375 110.367C50.3112 110.35 50.2532 110.333 50.1894 110.315C50.0734 110.28 49.9748 110.234 49.8878 110.193L49.708 110.106C25.8613 99.4008 9.17668 83.9225 2.73364 66.513C0.825672 61.3516 -0.0964205 56.1322 0.00796709 50.9998C0.025365 50.0371 0.0833574 49.1034 0.170347 48.2335C0.750278 43.8087 2.79164 39.6738 5.93486 36.5305C9.7624 32.703 14.8426 30.5978 20.2476 30.5978C25.6525 30.5978 30.7385 32.703 34.566 36.5305C35.4591 37.4294 36.2652 38.3979 36.967 39.4244L37.7383 40.5495L36.8278 41.5701C33.6498 45.1251 31.794 49.5094 31.4518 54.2532C31.4112 54.7752 31.3938 55.2971 31.3938 55.819C31.3938 57.1239 32.4551 58.1852 33.7599 58.1852H71.8034C72.4355 58.1852 73.0271 57.9416 73.4794 57.4892C73.9259 57.0427 74.1753 56.4454 74.1753 55.8132C74.1753 55.2971 74.1579 54.7752 74.1173 54.259C73.7752 49.4166 71.7628 44.8003 68.4456 41.2396L67.4713 40.1957L68.3064 39.0358C68.9501 38.1427 69.6693 37.296 70.4406 36.5247C74.2681 32.6972 79.3483 30.592 84.7591 30.592C90.1698 30.592 95.2442 32.6972 99.0718 36.5247C102.192 39.6448 104.239 43.7681 104.825 48.1233V48.1871C104.923 49.115 104.975 50.0545 104.993 50.994C105.091 56.1264 104.175 61.3458 102.267 66.5014C95.8184 83.8935 79.1511 99.366 55.3334 110.066L54.9738 110.321L54.7302 110.338C54.4461 110.454 54.1445 110.547 53.843 110.622L53.7328 110.646C53.5878 110.669 53.4428 110.686 53.292 110.704H53.2746C53.0194 110.744 52.7817 110.762 52.5845 110.767H52.5033H52.4975ZM51.9408 107.224L52.1901 107.253C52.2945 107.27 52.3931 107.276 52.4917 107.282C52.5845 107.282 52.6715 107.27 52.7643 107.253L52.9557 107.23C52.9962 107.23 53.031 107.224 53.0658 107.218C53.1876 107.184 53.3152 107.143 53.4428 107.091L53.524 107.062C53.5646 107.039 53.6226 107.01 53.6864 106.986C53.7096 106.975 53.727 106.963 53.7502 106.957L53.814 106.928C76.8198 96.6114 92.8665 81.8231 98.9964 65.2893C100.754 60.5455 101.6 55.7552 101.507 51.0578C101.49 50.2227 101.444 49.3818 101.362 48.5525C100.864 44.9047 99.2167 41.5933 96.6012 38.9778C93.4348 35.8114 89.2245 34.0658 84.7475 34.0658C80.2704 34.0658 76.0601 35.8114 72.8937 38.9778C72.5747 39.2968 72.2674 39.6332 71.9658 39.9811C75.2308 43.942 77.2142 48.8657 77.5737 53.9922C77.6201 54.5838 77.6433 55.1927 77.6433 55.8016C77.6433 57.3616 77.0344 58.8289 75.9325 59.9365C74.8307 61.0384 73.3634 61.6473 71.7976 61.6473H33.7541C30.5297 61.6473 27.9084 59.0261 27.9084 55.8016C27.9084 55.1927 27.9316 54.578 27.978 53.9807C28.3376 48.9469 30.176 44.2552 33.3076 40.3291C32.9306 39.8593 32.5247 39.407 32.0955 38.9778C28.9291 35.8114 24.7188 34.0658 20.2418 34.0658C15.7647 34.0658 11.5602 35.8114 8.38797 38.9778C5.78988 41.5817 4.09648 45.0033 3.62094 48.6163C3.55135 49.3412 3.49915 50.1763 3.48176 51.052C3.38897 55.7494 4.23566 60.5397 5.99285 65.2893C12.1169 81.8231 28.1578 96.6114 51.1637 106.928L51.2913 106.992L51.4072 107.01L51.6276 107.108C51.7146 107.149 51.819 107.184 51.935 107.213L51.9408 107.224Z" fill="#1492E6"/>
<path d="M66.2478 15.4445C66.2478 17.944 65.5693 20.2753 64.3862 22.2819C62.3507 25.7267 58.8247 28.1914 54.6956 28.7713C54.075 28.8583 53.4371 28.9047 52.7934 28.9047C51.9003 28.9047 51.0304 28.8177 50.1895 28.6553C46.4895 27.9304 43.3289 25.6919 41.3861 22.6067C40.0813 20.5363 39.3274 18.0774 39.3274 15.4445C39.3274 8.00399 45.3529 1.97852 52.7934 1.97852C60.2339 1.97852 66.2536 8.00399 66.2536 15.4445H66.2478Z" fill="#1492E6"/>
<path d="M52.7818 30.6444C51.7959 30.6444 50.81 30.5516 49.8473 30.3602C45.753 29.5541 42.1342 27.0662 39.9073 23.5286C38.3879 21.1161 37.5818 18.315 37.5818 15.4386C37.5818 7.05278 44.4018 0.232788 52.7876 0.232788C61.1734 0.232788 67.9876 7.05278 67.9876 15.4386C67.9876 18.1585 67.2626 20.8261 65.8882 23.1575L65.3837 24.0158H65.3373C62.9306 27.5475 59.19 29.8904 54.9333 30.4878C54.2084 30.5864 53.4893 30.6386 52.7876 30.6386L52.7818 30.6444ZM52.7818 3.71817C46.3155 3.71817 41.0556 8.97814 41.0556 15.4444C41.0556 17.6655 41.6761 19.8171 42.8476 21.6786C44.5642 24.4101 47.3594 26.3297 50.5142 26.9502C51.7843 27.1996 53.1007 27.2402 54.4462 27.0488C57.978 26.5501 61.0574 24.4913 62.8784 21.3945L63.0292 21.1393C63.9918 19.4053 64.5022 17.4393 64.5022 15.4386C64.5022 8.97235 59.2422 3.71237 52.7818 3.71237V3.71817Z" fill="#1492E6"/>
<path d="M31.0171 16.8013C31.0171 17.387 30.9707 17.9554 30.8779 18.5121C30.0602 23.6503 25.6121 27.5706 20.2478 27.5706C17.5975 27.5706 15.1618 26.6079 13.2828 25.0189C10.9573 23.0472 9.47266 20.0953 9.47266 16.8013C9.47266 10.857 14.2919 6.03198 20.242 6.03198C26.1921 6.03198 31.0113 10.857 31.0113 16.8013H31.0171Z" fill="#1492E6"/>
<path d="M20.2476 29.3108C17.2899 29.3108 14.4135 28.2553 12.1575 26.3474C9.34488 23.9639 7.73267 20.4843 7.73267 16.8017C7.73267 9.90054 13.3464 4.2926 20.2418 4.2926C27.1372 4.2926 32.7509 9.90634 32.7509 16.8017C32.7509 17.4686 32.6987 18.1356 32.5885 18.7967C31.62 24.886 26.4238 29.3166 20.2418 29.3166L20.2476 29.3108ZM20.2476 7.77219C15.266 7.77219 11.2181 11.8259 11.2181 16.8017C11.2181 19.4578 12.3837 21.9747 14.4135 23.6913C16.0431 25.0715 18.1134 25.8312 20.2534 25.8312C24.7188 25.8312 28.4652 22.6416 29.1669 18.2399C29.2423 17.7644 29.2829 17.2773 29.2829 16.8017C29.2829 11.8201 25.2292 7.77219 20.2534 7.77219H20.2476Z" fill="#1492E6"/>
<path d="M1.90439 48.4017C1.8174 49.2658 1.771 50.1473 1.7536 51.0288C1.7478 50.9708 1.7478 50.9012 1.7478 50.8375C1.7478 50.0081 1.8058 49.1962 1.91018 48.4017H1.90439Z" fill="white"/>
<path d="M0.0311912 51.2727C0.0137932 51.1335 0.00219727 50.9827 0.00219727 50.8319C0.00219727 49.9562 0.0601877 49.0573 0.176174 48.17L3.63256 48.5702C3.55717 49.3473 3.50498 50.1882 3.48758 51.0581L0.0253906 51.2727H0.0311912Z" fill="#1492E6"/>
<path d="M95.5169 16.8014C95.5169 20.1012 94.0381 23.0473 91.7068 25.019C89.8278 26.6139 87.4037 27.5707 84.7476 27.5707C79.3832 27.5707 74.9352 23.6504 74.1175 18.5122C74.0247 17.9555 73.9783 17.3814 73.9783 16.8014C73.9783 10.8571 78.7975 6.0321 84.7476 6.0321C90.6977 6.0321 95.5169 10.8571 95.5169 16.8014Z" fill="#1492E6"/>
<path d="M84.7476 29.3106C78.5597 29.3106 73.3693 24.8858 72.395 18.7849C72.2907 18.1354 72.2327 17.4626 72.2327 16.7957C72.2327 9.89455 77.8464 4.28662 84.7418 4.28662C91.6372 4.28662 97.2509 9.90035 97.2509 16.7957C97.2509 20.4841 95.6387 23.9579 92.8202 26.3414C90.5643 28.2552 87.6936 29.3048 84.736 29.3048L84.7476 29.3106ZM84.7476 7.772C79.766 7.772 75.718 11.8257 75.718 16.8015C75.718 17.2829 75.7586 17.7642 75.834 18.234C76.5358 22.6356 80.2821 25.831 84.7476 25.831C86.8817 25.831 88.9521 25.0713 90.5817 23.6911C92.6172 21.9687 93.7771 19.4634 93.7771 16.8015C93.7771 11.8199 89.7234 7.772 84.7476 7.772Z" fill="#1492E6"/>
<path d="M103.253 50.8379C103.253 50.9017 103.253 50.9655 103.247 51.0292C103.23 50.1304 103.178 49.2431 103.091 48.3616C103.201 49.1735 103.253 50.0028 103.253 50.8437V50.8379Z" fill="white"/>
<path d="M104.964 51.2728L101.502 51.0582C101.484 50.2115 101.438 49.359 101.357 48.5239L104.813 48.1238C104.935 49.0169 104.993 49.9274 104.993 50.8321C104.993 50.9828 104.987 51.1336 104.964 51.2728Z" fill="#1492E6"/>
<path d="M75.9093 55.8075C75.9093 56.9383 75.4512 57.9648 74.7089 58.7129C73.9666 59.4552 72.9401 59.9134 71.8034 59.9134H33.76C31.4924 59.9134 29.6541 58.075 29.6541 55.8075C29.6541 55.2391 29.6773 54.6766 29.7178 54.1199C30.0948 48.8657 32.2231 44.1045 35.5288 40.4045C35.8187 40.0739 36.1145 39.7608 36.4218 39.4534C40.6089 35.2663 46.3909 32.6798 52.7817 32.6798C59.1725 32.6798 64.9486 35.2663 69.1357 39.4534C69.3329 39.6506 69.5243 39.8536 69.7099 40.0565C73.1953 43.7971 75.457 48.7033 75.8397 54.1257C75.8803 54.6824 75.9035 55.2449 75.9035 55.8132L75.9093 55.8075Z" fill="#1492E6"/>
<path d="M71.8035 61.6533H33.76C30.5356 61.6533 27.9143 59.032 27.9143 55.8076C27.9143 55.1987 27.9375 54.584 27.9839 53.9866C28.3782 48.4773 30.5414 43.3797 34.2355 39.2448C34.5313 38.9084 34.8503 38.5721 35.1982 38.2241C39.9015 33.5267 46.1473 30.9402 52.7875 30.9402C59.4277 30.9402 65.6736 33.5267 70.371 38.2241C70.5856 38.4387 70.7944 38.6591 70.9974 38.8794C74.8423 43.0027 77.1794 48.3787 77.5796 53.9982C77.626 54.5898 77.6492 55.1987 77.6492 55.8076C77.6492 57.3676 77.0402 58.8349 75.9384 59.9425C74.8365 61.0444 73.3693 61.6533 71.8035 61.6533ZM52.7817 34.4198C47.0694 34.4198 41.6993 36.6467 37.6571 40.683C37.3614 40.9788 37.0946 41.263 36.8394 41.5529C33.6556 45.1137 31.7998 49.5038 31.4577 54.2418C31.4171 54.7637 31.3997 55.2857 31.3997 55.8076C31.3997 57.1125 32.461 58.1737 33.7658 58.1737H71.8093C72.4414 58.1737 73.0329 57.9302 73.4853 57.4778C73.9318 57.0313 74.1812 56.434 74.1812 55.8018C74.1812 55.2857 74.1638 54.7637 74.1232 54.2476C73.781 49.4052 71.7687 44.7889 68.4515 41.2282C68.2717 41.031 68.0919 40.8454 67.9179 40.6714C63.8816 36.6351 58.5115 34.4082 52.7933 34.4082L52.7817 34.4198Z" fill="white"/>
</svg>
