<svg width="107" height="42" viewBox="0 0 107 42" fill="none" xmlns="http://www.w3.org/2000/svg">
<path d="M21 0.5H86C97.3218 0.5 106.5 9.67816 106.5 21C106.5 32.3218 97.3218 41.5 86 41.5H21C9.67816 41.5 0.5 32.3218 0.5 21C0.5 9.67816 9.67816 0.5 21 0.5Z" fill="white"/>
<path d="M21 0.5H86C97.3218 0.5 106.5 9.67816 106.5 21C106.5 32.3218 97.3218 41.5 86 41.5H21C9.67816 41.5 0.5 32.3218 0.5 21C0.5 9.67816 9.67816 0.5 21 0.5Z" stroke="url(#paint0_linear_2_2530)"/>
<path fill-rule="evenodd" clip-rule="evenodd" d="M60.7 21.1706C60.7 20.6387 60.6523 20.1274 60.5636 19.6365H53.5V22.5376H57.5364C57.3625 23.4751 56.8341 24.2694 56.0398 24.8012V26.6831H58.4636C59.8818 25.3774 60.7 23.4547 60.7 21.1706Z" fill="#4285F4"/>
<path fill-rule="evenodd" clip-rule="evenodd" d="M53.5001 28.4998C55.5251 28.4998 57.2229 27.8282 58.4638 26.6828L56.0399 24.8009C55.3683 25.2509 54.5092 25.5168 53.5001 25.5168C51.5467 25.5168 49.8933 24.1975 49.3035 22.4248H46.7979V24.368C48.0319 26.8191 50.5683 28.4998 53.5001 28.4998Z" fill="#34A853"/>
<path fill-rule="evenodd" clip-rule="evenodd" d="M49.3034 22.425C49.1534 21.975 49.0682 21.4943 49.0682 21C49.0682 20.5057 49.1534 20.025 49.3034 19.575V17.6318H46.7977C46.2898 18.6443 46 19.7898 46 21C46 22.2102 46.2898 23.3557 46.7977 24.3682L49.3034 22.425Z" fill="#FBBC05"/>
<path fill-rule="evenodd" clip-rule="evenodd" d="M53.5001 16.483C54.6013 16.483 55.5899 16.8614 56.3672 17.6045L58.5183 15.4534C57.2194 14.2432 55.5217 13.5 53.5001 13.5C50.5683 13.5 48.0319 15.1807 46.7979 17.6318L49.3035 19.575C49.8933 17.8023 51.5467 16.483 53.5001 16.483Z" fill="#EA4335"/>
<defs>
<linearGradient id="paint0_linear_2_2530" x1="53.5" y1="0" x2="53.5" y2="42" gradientUnits="userSpaceOnUse">
<stop stop-color="#EA4335"/>
<stop offset="0.5" stop-color="#FBBC05"/>
<stop offset="0.75" stop-color="#34A853"/>
<stop offset="1" stop-color="#4285F4"/>
</linearGradient>
</defs>
</svg>
