<svg width="63" height="36" viewBox="0 0 63 36" fill="none" xmlns="http://www.w3.org/2000/svg">
<g clip-path="url(#clip0_2_22762)">
<path opacity="0.9" d="M35.5219 1.13174C31.7105 -1.25134 24.8961 0.400079 24.9456 3.56612L25.0248 32.9622C26.3504 37.1929 36.5487 36.9689 37.1202 32.5132L37.1256 3.56342C37.0563 2.67157 36.5883 1.79861 35.5219 1.13174ZM34.8181 19.354H32.1317V22.008H29.9403V19.354H27.2792L27.2927 17.1608H29.9403V14.4763L32.1317 14.4835V17.1617H34.8181V19.354Z" fill="#6E6E6E"/>
<path opacity="0.5" d="M45.7033 5.53418C47.6652 5.35779 49.313 6.69242 49.5362 8.64353L49.5281 27.4283C48.9017 31.6059 42.9755 31.4475 42.6074 27.1664L42.6605 8.47163C42.8855 6.96511 44.1679 5.67187 45.7024 5.53328L45.7033 5.53418Z" fill="#6E6E6E"/>
<path opacity="0.4" d="M58.033 11.0624C59.7313 10.8617 61.4403 11.8246 61.8785 13.5318C62.1323 14.5218 62.1341 21.4181 61.8884 22.4216C61.0821 25.7127 56.2214 25.8216 55.2684 22.6115C54.9354 21.4892 54.9948 15.6737 55.1019 14.2635C55.2216 12.6904 56.4239 11.2523 58.0339 11.0624H58.033Z" fill="#6E6E6E"/>
<path opacity="0.4" d="M16.3681 30.4557C14.4062 30.6321 12.7583 29.2974 12.5352 27.3463L12.5433 8.56157C13.1696 4.38398 19.0958 4.54237 19.4639 8.82346L19.4108 27.5182C19.1858 29.0247 17.9034 30.318 16.369 30.4566L16.3681 30.4557Z" fill="#6E6E6E"/>
<path opacity="0.2" d="M4.03779 24.9266C2.33957 25.1273 0.630557 24.1644 0.192279 22.4572C-0.0615087 21.4672 -0.0633086 14.5709 0.182379 13.5674C0.988739 10.2763 5.8494 10.1674 6.80245 13.3775C7.13543 14.4998 7.07604 20.3153 6.96894 21.7255C6.84925 23.2986 5.64691 24.7368 4.03689 24.9266H4.03779Z" fill="#6E6E6E"/>
</g>
<defs>
<clipPath id="clip0_2_22762">
<rect width="62.0708" height="36" fill="white"/>
</clipPath>
</defs>
</svg>
