<svg width="63" height="36" viewBox="0 0 63 36" fill="none" xmlns="http://www.w3.org/2000/svg">
<g clip-path="url(#clip0_2_15611)">
<path opacity="0.9" d="M35.5219 1.13211C31.7105 -1.25097 24.8961 0.400446 24.9456 3.56649L25.0248 32.9626C26.3504 37.1933 36.5487 36.9692 37.1202 32.5135L37.1256 3.56379C37.0563 2.67193 36.5883 1.79898 35.5219 1.13211ZM34.8181 19.3544H32.1317V22.0084H29.9403V19.3544H27.2792L27.2927 17.1612H29.9403V14.4766L32.1317 14.4838V17.1621H34.8181V19.3544Z" fill="white"/>
<path opacity="0.5" d="M45.7033 5.53381C47.6652 5.35742 49.313 6.69206 49.5362 8.64316L49.5281 27.4279C48.9017 31.6055 42.9755 31.4471 42.6074 27.166L42.6605 8.47127C42.8855 6.96474 44.1679 5.67151 45.7024 5.53291L45.7033 5.53381Z" fill="white"/>
<path opacity="0.4" d="M58.033 11.0622C59.7313 10.8616 61.4403 11.8245 61.8785 13.5317C62.1323 14.5217 62.1341 21.418 61.8884 22.4215C61.0821 25.7126 56.2214 25.8215 55.2684 22.6114C54.9354 21.4891 54.9948 15.6736 55.1019 14.2634C55.2216 12.6903 56.4239 11.2521 58.0339 11.0622H58.033Z" fill="white"/>
<path opacity="0.4" d="M16.3681 30.4554C14.4062 30.6318 12.7583 29.2972 12.5352 27.3461L12.5433 8.56133C13.1696 4.38374 19.0958 4.54213 19.4639 8.82322L19.4108 27.518C19.1858 29.0245 17.9034 30.3177 16.369 30.4563L16.3681 30.4554Z" fill="white"/>
<path opacity="0.2" d="M4.03779 24.927C2.33957 25.1277 0.630557 24.1648 0.192279 22.4575C-0.0615087 21.4676 -0.0633086 14.5712 0.182379 13.5678C0.988739 10.2766 5.8494 10.1677 6.80245 13.3779C7.13543 14.5001 7.07604 20.3156 6.96894 21.7259C6.84925 23.299 5.64691 24.7371 4.03689 24.927H4.03779Z" fill="white"/>
</g>
<defs>
<clipPath id="clip0_2_15611">
<rect width="62.0708" height="36" fill="white"/>
</clipPath>
</defs>
</svg>
