<svg width="105" height="129" viewBox="0 0 105 129" fill="none" xmlns="http://www.w3.org/2000/svg">
<path d="M52.4928 60.0933C68.5657 60.0933 81.5954 47.0887 81.5954 31.0467C81.5954 15.0046 68.5657 2 52.4928 2C36.4198 2 23.3901 15.0046 23.3901 31.0467C23.3901 47.0887 36.4198 60.0933 52.4928 60.0933Z" fill="#1492E6"/>
<path d="M52.4932 62.0934C35.3402 62.0934 21.3867 48.1667 21.3867 31.0467C21.3867 13.9267 35.3402 0 52.4932 0C69.6462 0 83.5997 13.9267 83.5997 31.0467C83.5997 48.1667 69.6462 62.0934 52.4932 62.0934ZM52.4932 4C37.5511 4 25.3944 16.1333 25.3944 31.0467C25.3944 45.96 37.5511 58.0933 52.4932 58.0933C67.4353 58.0933 79.592 45.96 79.592 31.0467C79.592 16.1333 67.4353 4 52.4932 4Z" fill="#1492E6"/>
<path d="M52.4934 68.24C80.0865 68.24 102.49 90.6 102.49 118.14C102.49 123.033 98.5086 127 93.6125 127H11.381C6.47821 127 2.50391 123.027 2.50391 118.14C2.50391 90.6 24.907 68.24 52.5001 68.24H52.4934Z" fill="#1492E6"/>
<path d="M93.6124 129H11.3809C5.38272 129 0.5 124.127 0.5 118.14C0.5 89.52 23.8249 66.24 52.5 66.24C81.1752 66.24 104.5 89.52 104.5 118.14C104.5 124.127 99.6173 129 93.6191 129H93.6124ZM52.4933 70.24C26.0291 70.24 4.50102 91.7267 4.50102 118.14C4.50102 121.92 7.58696 125 11.3742 125H93.6057C97.393 125 100.479 121.92 100.479 118.14C100.479 91.7267 78.9509 70.24 52.4867 70.24H52.4933Z" fill="#1492E6"/>
<path d="M50.9905 83.8801H53.9896C54.7978 83.8801 55.5325 84.2068 56.0602 84.7401C56.5946 85.2735 56.9219 86.0001 56.9219 86.8068V91.5601C56.9219 92.0135 57.1089 92.4201 57.4028 92.7201C57.6967 93.0201 58.1108 93.2001 58.565 93.2001H63.3275C64.1358 93.2001 64.8705 93.5268 65.3982 94.0601C65.9326 94.5935 66.2598 95.3201 66.2598 96.1268V99.1201C66.2598 99.9268 65.9326 100.66 65.3982 101.187C64.8638 101.72 64.1358 102.047 63.3275 102.047H58.565C58.1108 102.047 57.7034 102.233 57.4028 102.527C57.1022 102.82 56.9219 103.233 56.9219 103.687V108.44C56.9219 109.247 56.5946 109.98 56.0602 110.507C55.5259 111.04 54.7978 111.367 53.9896 111.367H50.9905C50.1823 111.367 49.4475 111.04 48.9198 110.507C48.3855 109.973 48.0582 109.247 48.0582 108.44V103.687C48.0582 103.233 47.8711 102.827 47.5772 102.527C47.2833 102.227 46.8692 102.047 46.415 102.047H41.6525C40.8443 102.047 40.1095 101.72 39.5819 101.187C39.0475 100.653 38.7202 99.9268 38.7202 99.1201V96.1268C38.7202 95.3201 39.0475 94.5868 39.5819 94.0601C40.1162 93.5268 40.8443 93.2001 41.6525 93.2001H46.415C46.8692 93.2001 47.2767 93.0135 47.5772 92.7201C47.8778 92.4268 48.0582 92.0135 48.0582 91.5601V86.8068C48.0582 86.0001 48.3855 85.2668 48.9198 84.7401C49.4542 84.2068 50.1823 83.8801 50.9905 83.8801Z" fill="white"/>
</svg>
