<svg width="73" height="28" viewBox="0 0 73 28" fill="none" xmlns="http://www.w3.org/2000/svg">
<path d="M38.3666 14.1095C38.9862 17.1337 39.7208 20.1534 40.2697 23.1868L42.7321 13.6894L43.3775 13.3885C44.2663 13.2332 50.7438 13.3068 51.0591 13.1117C51.3124 12.9547 52.1158 8.3632 52.4083 7.76372C53.2806 6.57564 53.9137 7.63782 54.0723 8.54523L55.9932 17.5489L57.4696 13.8578L57.8231 13.5673L72.6608 13.8583L58.2429 14.2698L56.4117 19.7665C56.1161 20.2085 55.5721 20.1627 55.3613 19.6853L53.0747 11.1742C52.846 11.8304 52.6677 14.2055 51.8969 14.4251L43.9467 14.6627L41.3072 25.509C40.8665 27.8536 39.5376 27.9451 39.1786 25.4954L34.8519 3.99295L31.4791 14.1248L30.9536 14.4665L23.114 14.5341L21.876 20.1147C21.675 20.6848 20.6583 20.6777 20.4623 20.1284C19.7296 16.8612 19.1038 13.5989 18.5617 10.3012C18.0539 10.8576 17.3858 13.9853 16.7791 14.1237L0.300781 13.758L16.3156 13.4452C16.5898 13.3433 17.7331 9.12782 17.9814 8.54523C18.4529 7.44054 19.0368 7.33917 19.4136 8.57084L21.139 16.2731C21.5244 15.557 21.4482 13.4948 22.3124 13.1803L30.3045 13.1198L34.2231 0.784072C34.5058 0.104474 35.4948 0.157883 35.726 0.836391C36.6664 5.25242 37.4606 9.69024 38.3666 14.1095Z" fill="#6E6E6E" stroke="#6E6E6E" stroke-width="0.6" stroke-linejoin="round"/>
</svg>
