<svg width="73" height="28" viewBox="0 0 73 28" fill="none" xmlns="http://www.w3.org/2000/svg">
<path d="M38.3666 14.1092C38.9862 17.1333 39.7208 20.1531 40.2697 23.1865L42.7321 13.689L43.3775 13.3882C44.2663 13.2328 50.7438 13.3064 51.0591 13.1113C51.3124 12.9543 52.1158 8.36283 52.4083 7.76335C53.2806 6.57528 53.9137 7.63746 54.0723 8.54486L55.9932 17.5486L57.4696 13.8574L57.8231 13.5669L72.6608 13.8579L58.2429 14.2694L56.4117 19.7661C56.1161 20.2081 55.5721 20.1623 55.3613 19.6849L53.0747 11.1739C52.846 11.83 52.6677 14.2051 51.8969 14.4247L43.9467 14.6623L41.3072 25.5087C40.8665 27.8532 39.5376 27.9447 39.1786 25.495L34.8519 3.99259L31.4791 14.1244L30.9536 14.4661L23.114 14.5337L21.876 20.1144C21.675 20.6844 20.6583 20.6773 20.4623 20.128C19.7296 16.8608 19.1038 13.5985 18.5617 10.3008C18.0539 10.8572 17.3858 13.9849 16.7791 14.1233L0.300781 13.7577L16.3156 13.4448C16.5898 13.3429 17.7331 9.12745 17.9814 8.54486C18.4529 7.44017 19.0368 7.3388 19.4136 8.57047L21.139 16.2728C21.5244 15.5567 21.4482 13.4944 22.3124 13.18L30.3045 13.1195L34.2231 0.783706C34.5058 0.104108 35.4948 0.157517 35.726 0.836025C36.6664 5.25205 37.4606 9.68988 38.3666 14.1092Z" fill="white" stroke="white" stroke-width="0.6" stroke-linejoin="round"/>
</svg>
